[img]http://www.shotpix.com/images/24940000574214150568.png[/img][url]http://www.imdb.com/title/tt2100543[/url]


[img]http://www.shotpix.com/images/77085747293401738346.gif[/img]


[b]Movie Name :- Hum Hai Raahi CAR Ke (2013)

Genres :- Adventure | Romance  

Release Date :-  24 May 2013 (India)
 
Ratings: 1.7/10 from 47 users  

Director :- Jyotin Goel

Writer :- Jyotin Goel

Stars :- Anupam Kher, Sanjay Dutt, Juhi Chawla [/b]


[img]http://www.shotpix.com/images/59022378797514383087.gif[/img]


[b]Hum Hai Raahi CAR Ke is the story of two friends who on one New Year's night decide to travel from Mumbai to Pune. But a trip that should only take a couple of hours ends up becoming an all-nighters, with wacky events keeping them on the road and preventing them from reaching their destination.[/b]


[img]http://www.shotpix.com/images/44663617507488027387.gif[/img]

[code]Complete name                            : Hum_Hai_Rahi_Car_Ke_2013_WEBRip_180Mb
Format                                   : AVI
Format/Info                              : Audio Video Interleave
File size                                : 180 MiB
Duration                                 : 2h 3mn
Overall bit rate                         : 204 Kbps
Writing application                      : MEncoder VERSION
Writing library                          : MPlayer[/code]

[img]http://www.shotpix.com/images/34235854661596452485.gif[/img]

[code]ID                                       : 0
Format                                   : MPEG-4 Visual
Format profile                           : Advanced Simple@L5
Format settings, BVOP                    : 2
Format settings, QPel                    : No
Format settings, GMC                     : No warppoints
Format settings, Matrix                  : Default (H.263)
Codec ID                                 : XVID
Codec ID/Hint                            : XviD
Duration                                 : 2h 3mn
Bit rate                                 : 160 Kbps
Width                                    : 320 pixels
Height                                   : 240 pixels
Display aspect ratio                     : 2.042
Original display aspect ratio            : 4:3
Frame rate                               : 23.976 fps
Color space                              : YUV
Chroma subsampling                       : 4:2:0
Bit depth                                : 8 bits
Scan type                                : Progressive
Compression mode                         : Lossy
Bits/(Pixel*Frame)                       : 0.087
Stream size                              : 141 MiB (78%)
Writing library                          : XviD 64[/code]

[img]http://www.shotpix.com/images/54760780871226007874.gif[/img]

[code]ID                                       : 1
Format                                   : MPEG Audio
Format version                           : Version 2
Format profile                           : Layer 3
Codec ID                                 : 55
Codec ID/Hint                            : MP3
Duration                                 : 2h 3mn
Bit rate mode                            : Constant
Bit rate                                 : 32.0 Kbps
Channel(s)                               : 1 channel
Sampling rate                            : 22.05 KHz
Compression mode                         : Lossy
Delay relative to video                  : 42ms
Stream size                              : 28.2 MiB (16%)
Alignment                                : Aligned on interleaves
Interleave, duration                     : 26 ms (0.63 video frame)
Interleave, preload duration             : 522 ms[/code]

[img]http://www.shotpix.com/images/50894759808379845433.gif[/img]


[img]http://img819.imageshack.us/img819/4940/humhairahicarkewebrip18.jpg[/img]



[img]http://www.shotpix.com/images/58829411693773444709.gif[/img]



[img]http://www.shotpix.com/images/37530658244654420663.jpg[/img]